<svg id="visual" viewBox="0 0 960 300" width="960" height="300" xmlns="http://www.w3.org/2000/svg" xmlns:xlink="http://www.w3.org/1999/xlink" version="1.1"><rect x="0" y="0" width="960" height="300" fill="#FF0066"></rect><g transform="translate(472.32605227208177 151.8181056032795)"><path d="M53.9 -96.4C71.6 -83.3 88.6 -72.1 104.5 -56.4C120.4 -40.7 135.2 -20.3 128.4 -3.9C121.7 12.5 93.3 25 76.7 39.6C60.1 54.2 55.3 70.8 44.5 84.7C33.7 98.6 16.8 109.8 -2.7 114.6C-22.3 119.3 -44.7 117.7 -65 109.3C-85.4 100.9 -103.7 85.7 -110.2 66.3C-116.7 47 -111.4 23.5 -112.1 -0.4C-112.8 -24.3 -119.6 -48.7 -108.2 -59.5C-96.8 -70.3 -67.1 -67.6 -46.1 -78.8C-25 -90 -12.5 -115 2.8 -119.9C18.2 -124.8 36.3 -109.6 53.9 -96.4" fill="none" stroke="#BB004B" stroke-width="6"></path></g></svg>