<svg id="visual" viewBox="0 0 960 300" width="960" height="300" xmlns="http://www.w3.org/2000/svg" xmlns:xlink="http://www.w3.org/1999/xlink" version="1.1"><rect x="0" y="0" width="960" height="300" fill="#202731"></rect><path d="M0 234L120 238L240 236L360 237L480 248L600 229L720 237L840 251L960 238L960 301L840 301L720 301L600 301L480 301L360 301L240 301L120 301L0 301Z" fill="#dd3f31"></path><path d="M0 260L120 252L240 256L360 252L480 266L600 253L720 256L840 268L960 261L960 301L840 301L720 301L600 301L480 301L360 301L240 301L120 301L0 301Z" fill="#ee5849"></path><path d="M0 276L120 276L240 273L360 281L480 277L600 272L720 278L840 275L960 269L960 301L840 301L720 301L600 301L480 301L360 301L240 301L120 301L0 301Z" fill="#ff6f61"></path></svg>